<svg width="19" height="20" viewBox="0 0 19 20" fill="none" xmlns="http://www.w3.org/2000/svg">
<path d="M13.625 0C12.472 0.067 11.1483 0.709344 10.3613 1.52734C9.65033 2.27134 9.08936 3.37631 9.31836 4.44531C10.5714 4.47831 11.829 3.81933 12.582 2.98633C13.285 2.20733 13.818 1.12 13.625 0ZM13.6934 4.44336C11.8844 4.44336 11.128 5.55469 9.875 5.55469C8.586 5.55469 7.40766 4.51367 5.84766 4.51367C3.72566 4.51467 0.5 6.48033 0.5 11.1113C0.5 15.3243 4.31766 20 6.47266 20C7.78166 20.013 8.099 19.177 9.875 19.168C11.653 19.155 12.0367 20.011 13.3477 20C14.8237 19.989 15.9764 18.367 16.8184 17.082C17.4224 16.162 17.6707 15.6923 18.1387 14.6523C14.6657 13.7723 13.9747 8.17167 18.1387 7.01367C17.3527 5.67267 15.0584 4.44336 13.6934 4.44336Z" fill="#2B2829"/>
</svg>
