<svg width="1497" height="370" viewBox="0 0 1497 370" fill="none" xmlns="http://www.w3.org/2000/svg">
<path d="M654.186 298.653L499.549 136.981H498.608V298.653H443.175V72.2551H507.733L662.37 234.238H663.625V72.2551H719.058V298.678H654.186V298.653Z" fill="#CED4DA"/>
<path d="M789.316 72.2551H844.749V298.678H789.316V72.2551Z" fill="#CED4DA"/>
<path d="M1050.09 115.717V298.653H994.653V115.717H885.984V72.2551H1158.73V115.717H1050.06H1050.09Z" fill="#CED4DA"/>
<path d="M1361.58 210.482V298.678H1306.15V210.482L1170.73 72.2551H1240.96L1333.87 166.709L1426.77 72.2551H1497L1361.58 210.482Z" fill="#CED4DA"/>
<path d="M206.853 0H166.089C156.075 83.3153 83.8552 158.816 0 164.917V205.393C82.8616 213.078 157.278 286.839 166.089 370.31H206.853C214.567 287.54 289.114 213.909 372.943 205.393V164.917C290.316 158.452 216.371 84.3019 206.853 0ZM263.358 221.205L222.777 261.499C202.722 241.586 170.194 241.586 150.139 261.499L109.558 221.205C129.613 201.291 129.613 168.993 109.558 149.08L150.139 108.785C170.194 128.699 202.722 128.699 222.777 108.785L263.358 149.08C243.303 168.993 243.303 201.291 263.358 221.205Z" fill="#CED4DA"/>
</svg>
