<svg width="68" height="68" viewBox="0 0 68 68" fill="none" xmlns="http://www.w3.org/2000/svg">
<path d="M28.0538 61.8888L29.3937 57.0312C29.6729 56.2496 30.0638 55.5796 30.5662 55.0212C31.0688 54.4629 31.7108 54.1558 32.4925 54.1L43.6312 53.2625C44.4688 53.2067 45.2085 53.3742 45.8506 53.765C46.4927 54.1558 46.9533 54.7142 47.2325 55.44L48.3213 58.7062C50.6663 57.2546 52.774 55.5935 54.6444 53.7231C56.5148 51.8527 58.0362 49.7171 59.2087 47.3162L58.3712 46.6463C57.6454 46.1996 57.1429 45.6413 56.8638 44.9713C56.5846 44.3013 56.5008 43.6033 56.6125 42.8775L59.125 31.8225C59.2367 31.0408 59.5856 30.4406 60.1719 30.0219C60.7581 29.6031 61.4142 29.3658 62.14 29.31C61.8608 27.8583 61.484 26.4067 61.0094 24.955C60.5348 23.5033 59.9346 22.0517 59.2087 20.6C58.7621 20.935 58.2596 21.1025 57.7013 21.1025C57.1429 21.1025 56.5846 20.9071 56.0263 20.5162L46.6463 14.9888C46.0321 14.5979 45.5854 14.0535 45.3062 13.3556C45.0271 12.6577 44.9433 11.9179 45.055 11.1362L45.8088 8.12125C43.9663 7.22792 42.054 6.57187 40.0719 6.15312C38.0898 5.73438 36.0658 5.525 34 5.525C33.1067 5.525 32.2413 5.53896 31.4037 5.56687C30.5662 5.59479 29.7008 5.66458 28.8075 5.77625L31.655 11.8062C31.99 12.5321 32.0458 13.2858 31.8225 14.0675C31.5992 14.8492 31.1525 15.5192 30.4825 16.0775L22.1912 23.4475C21.5212 23.8383 20.7954 24.0756 20.0138 24.1594C19.2321 24.2431 18.4783 24.0617 17.7525 23.615L9.79625 18.925C8.34458 21.2142 7.26979 23.629 6.57187 26.1694C5.87396 28.7098 5.525 31.32 5.525 34C5.525 35.005 5.63667 36.5125 5.86 38.5225L13.7325 37.7687C14.5142 37.6571 15.254 37.8106 15.9519 38.2294C16.6498 38.6481 17.1663 39.2483 17.5013 40.03L21.5212 50.3312C21.8562 51.0571 21.954 51.755 21.8144 52.425C21.6748 53.095 21.2979 53.7092 20.6838 54.2675L17.5013 57.2825C19.0646 58.3992 20.7256 59.3344 22.4844 60.0881C24.2431 60.8419 26.0996 61.4421 28.0538 61.8888ZM34.67 46.5625C33.8325 46.6183 33.0927 46.4508 32.4506 46.06C31.8085 45.6692 31.32 45.1108 30.985 44.385L25.96 33.2463C25.6808 32.5204 25.6669 31.7946 25.9181 31.0687C26.1694 30.3429 26.63 29.7567 27.3 29.31L36.345 21.3537C36.9033 20.7954 37.5733 20.5302 38.355 20.5581C39.1367 20.586 39.8904 20.7954 40.6162 21.1863L50.4987 27.1325C51.1688 27.5233 51.6433 28.0677 51.9225 28.7656C52.2017 29.4635 52.2575 30.2033 52.09 30.985L49.5775 42.71C49.3542 43.38 48.9494 43.9662 48.3631 44.4688C47.7769 44.9712 47.1767 45.2504 46.5625 45.3062L34.67 46.5625ZM34 67.5C29.3658 67.5 25.0108 66.6206 20.935 64.8619C16.8592 63.1031 13.3137 60.7163 10.2987 57.7013C7.28375 54.6863 4.89687 51.1408 3.13812 47.065C1.37937 42.9892 0.5 38.6342 0.5 34C0.5 29.3658 1.37937 25.0108 3.13812 20.935C4.89687 16.8592 7.28375 13.3137 10.2987 10.2987C13.3137 7.28375 16.8592 4.89687 20.935 3.13812C25.0108 1.37937 29.3658 0.5 34 0.5C38.6342 0.5 42.9892 1.37937 47.065 3.13812C51.1408 4.89687 54.6863 7.28375 57.7013 10.2987C60.7163 13.3137 63.1031 16.8592 64.8619 20.935C66.6206 25.0108 67.5 29.3658 67.5 34C67.5 38.6342 66.6206 42.9892 64.8619 47.065C63.1031 51.1408 60.7163 54.6863 57.7013 57.7013C54.6863 60.7163 51.1408 63.1031 47.065 64.8619C42.9892 66.6206 38.6342 67.5 34 67.5Z" fill="#F8F9FA"/>
</svg>
