<svg width="68" height="58" viewBox="0 0 68 58" fill="none" xmlns="http://www.w3.org/2000/svg">
<path d="M14.1059 57.6145C10.3395 57.6145 7.13021 56.2873 4.47813 53.6329C1.82604 50.9781 0.5 47.7676 0.5 44.0017C0.5 40.2353 1.8272 37.026 4.48161 34.3739C7.13649 31.7218 10.3469 30.3958 14.1129 30.3958C17.8793 30.3958 21.0885 31.723 23.7406 34.3774C26.3927 37.0323 27.7188 40.2427 27.7188 44.0087C27.7188 47.7751 26.3915 50.9843 23.7371 53.6364C21.0823 56.2885 17.8718 57.6145 14.1059 57.6145ZM14.1094 53.427C16.7615 53.427 18.9948 52.5198 20.8094 50.7052C22.624 48.8906 23.5312 46.6573 23.5312 44.0052C23.5312 41.3531 22.624 39.1198 20.8094 37.3052C18.9948 35.4906 16.7615 34.5833 14.1094 34.5833C11.4573 34.5833 9.22396 35.4906 7.40938 37.3052C5.59479 39.1198 4.6875 41.3531 4.6875 44.0052C4.6875 46.6573 5.59479 48.8906 7.40938 50.7052C9.22396 52.5198 11.4573 53.427 14.1094 53.427ZM31.9062 48.8208V34.8625L22.4844 26.5573C21.9726 26.1385 21.6003 25.6304 21.3677 25.033C21.1351 24.436 21.0188 23.8079 21.0188 23.1486C21.0188 22.4898 21.1467 21.8812 21.4026 21.3229C21.6585 20.7645 22.0191 20.2527 22.4844 19.7875L30.7896 11.4823C31.3014 10.9704 31.8734 10.5982 32.5058 10.3656C33.1381 10.1329 33.8011 10.0166 34.4948 10.0166C35.1886 10.0166 35.8495 10.1329 36.4776 10.3656C37.1057 10.5982 37.6757 10.9704 38.1875 11.4823L43.6313 16.926C45.0271 18.3218 46.6148 19.4385 48.3945 20.276C50.1742 21.1135 52.0528 21.5323 54.0302 21.5323V25.7198C51.4609 25.7198 49.0157 25.2079 46.6944 24.1843C44.3731 23.1607 42.3052 21.7416 40.4906 19.927L37.699 17.1354L29.9521 24.952L36.0938 31.5823V48.8208H31.9062ZM43.7066 10.575C42.3071 10.575 41.1071 10.0766 40.1068 9.08002C39.1064 8.0834 38.6063 6.88531 38.6063 5.48575C38.6063 4.0862 39.1046 2.88624 40.1012 1.8859C41.0978 0.88555 42.2959 0.385376 43.6955 0.385376C45.095 0.385376 46.295 0.883687 47.2953 1.88031C48.2957 2.87694 48.7958 4.07503 48.7958 5.47458C48.7958 6.87414 48.2975 8.07409 47.3009 9.07444C46.3043 10.0748 45.1062 10.575 43.7066 10.575ZM53.8871 57.6145C50.1207 57.6145 46.9115 56.2873 44.2594 53.6329C41.6073 50.9781 40.2812 47.7676 40.2812 44.0017C40.2812 40.2353 41.6085 37.026 44.2629 34.3739C46.9177 31.7218 50.1282 30.3958 53.8941 30.3958C57.6605 30.3958 60.8698 31.723 63.5219 34.3774C66.174 37.0323 67.5 40.2427 67.5 44.0087C67.5 47.7751 66.1728 50.9843 63.5184 53.6364C60.8635 56.2885 57.6531 57.6145 53.8871 57.6145ZM53.8906 53.427C56.5427 53.427 58.776 52.5198 60.5906 50.7052C62.4052 48.8906 63.3125 46.6573 63.3125 44.0052C63.3125 41.3531 62.4052 39.1198 60.5906 37.3052C58.776 35.4906 56.5427 34.5833 53.8906 34.5833C51.2385 34.5833 49.0052 35.4906 47.1906 37.3052C45.376 39.1198 44.4688 41.3531 44.4688 44.0052C44.4688 46.6573 45.376 48.8906 47.1906 50.7052C49.0052 52.5198 51.2385 53.427 53.8906 53.427Z" fill="#F8F9FA"/>
</svg>
