<svg width="68" height="60" viewBox="0 0 68 60" fill="none" xmlns="http://www.w3.org/2000/svg">
<path d="M6.08333 59.2776V55.0901H8.875C10.3174 55.0901 11.7481 54.8459 13.1672 54.3573C14.5863 53.8688 15.9472 52.9731 17.25 51.6703C18.5528 52.9731 19.9137 53.8688 21.3328 54.3573C22.7519 54.8459 24.1826 55.0901 25.625 55.0901C27.0208 55.0901 28.4516 54.8342 29.9172 54.3224C31.3828 53.8106 32.7438 52.9266 34 51.6703C35.3493 52.9731 36.7219 53.8688 38.1177 54.3573C39.5135 54.8459 40.9326 55.0901 42.375 55.0901C43.7708 55.0901 45.2016 54.8342 46.6672 54.3224C48.1328 53.8106 49.4938 52.9266 50.75 51.6703C52.0063 52.9266 53.3672 53.8106 54.8328 54.3224C56.2984 54.8342 57.7292 55.0901 59.125 55.0901H61.9167V59.2776H59.125C57.7757 59.2776 56.3915 59.0799 54.9724 58.6844C53.5533 58.2889 52.1458 57.5561 50.75 56.486C49.3542 57.5561 47.9467 58.2889 46.5276 58.6844C45.1085 59.0799 43.7243 59.2776 42.375 59.2776C41.0257 59.2776 39.6415 59.0799 38.2224 58.6844C36.8033 58.2889 35.3958 57.5561 34 56.486C32.6042 57.5561 31.1967 58.2889 29.7776 58.6844C28.3585 59.0799 26.9743 59.2776 25.625 59.2776C24.2757 59.2776 22.8915 59.0799 21.4724 58.6844C20.0533 58.2889 18.6458 57.5561 17.25 56.486C15.8542 57.5561 14.4467 58.2889 13.0276 58.6844C11.6085 59.0799 10.2243 59.2776 8.875 59.2776H6.08333ZM25.625 48.3901C24.0896 48.3901 22.5774 47.9714 21.0885 47.1339C19.5997 46.2964 18.3201 45.203 17.25 43.8537C16.6451 44.5051 15.924 45.1448 15.0865 45.7729C14.249 46.4011 13.4347 46.971 12.6438 47.4828C10.8292 47.1106 8.86337 46.6104 6.74635 45.9823C4.62934 45.3542 2.54722 44.6679 0.5 43.9235C2.96597 42.9464 6.16476 41.9693 10.0964 40.9922C14.028 40.0151 17.6455 39.2474 20.949 38.6891L24.8573 26.1964C25.2295 24.8936 26.0205 23.9863 27.2302 23.4745C28.4399 22.9627 29.6264 23.0092 30.7896 23.6141L38.1875 27.5224L46.6323 23.0557L51.5177 11.7495L50.1219 8.05054L53.4719 0.722412L61.0792 4.1422L57.799 11.4703L54.1 12.8662L43.2125 38.2005C47.4465 38.7123 51.8899 39.5266 56.5427 40.6432C61.1955 41.7599 64.8479 42.8533 67.5 43.9235C65.4528 44.6679 63.3707 45.3542 61.2537 45.9823C59.1366 46.6104 57.1708 47.1106 55.3563 47.4828C54.5653 46.971 53.751 46.4011 52.9135 45.7729C52.076 45.1448 51.3549 44.5051 50.75 43.8537C49.6799 45.203 48.4003 46.2964 46.9115 47.1339C45.4226 47.9714 43.9104 48.3901 42.375 48.3901C40.8396 48.3901 39.3274 47.9714 37.8385 47.1339C36.3497 46.2964 35.0701 45.203 34 43.8537C32.9299 45.203 31.6503 46.2964 30.1615 47.1339C28.6726 47.9714 27.1604 48.3901 25.625 48.3901ZM40.2115 37.8516L43.8406 29.1974L38.1875 32.1287L32.8833 29.4766L30.3708 37.6422H34C35.0701 37.6422 36.1054 37.6538 37.1057 37.6771C38.1061 37.7004 39.1413 37.7585 40.2115 37.8516ZM34 20.613C32.6042 20.613 31.4061 20.1129 30.4057 19.1125C29.4054 18.1122 28.9052 16.9141 28.9052 15.5182C28.9052 14.1224 29.4054 12.9243 30.4057 11.924C31.4061 10.9236 32.6042 10.4235 34 10.4235C35.3958 10.4235 36.5939 10.9236 37.5943 11.924C38.5946 12.9243 39.0948 14.1224 39.0948 15.5182C39.0948 16.9141 38.5946 18.1122 37.5943 19.1125C36.5939 20.1129 35.3958 20.613 34 20.613Z" fill="#F8F9FA"/>
</svg>
