<svg width="32" height="32" viewBox="0 0 32 32" fill="none" xmlns="http://www.w3.org/2000/svg">
<mask id="mask0_2032_4300" style="mask-type:alpha" maskUnits="userSpaceOnUse" x="0" y="0" width="32" height="32">
<rect x="0.537109" y="0.447266" width="30.7107" height="30.7107" fill="#D9D9D9"/>
</mask>
<g mask="url(#mask0_2032_4300)">
<path d="M26.3207 12.6359C25.7022 10.5672 24.5452 8.82375 22.8497 7.40551C21.1543 5.98727 19.1549 5.17152 16.8516 4.95825V7.16558L26.3207 12.6359ZM10.0376 17.9783L14.9321 15.0992V4.95825C14.0577 5.06488 13.21 5.24616 12.3889 5.50208C11.5678 5.75801 10.784 6.13123 10.0376 6.62174V17.9783ZM6.00682 20.3776L8.11819 19.13V8.15728C7.11582 9.18097 6.34805 10.3593 5.81488 11.6922C5.28171 13.0251 5.01512 14.3954 5.01512 15.803C5.01512 16.6347 5.10043 17.4185 5.27105 18.1543C5.44166 18.89 5.68692 19.6312 6.00682 20.3776ZM10.9013 25.496L20.9143 19.7058L15.8918 16.7627L6.93454 22.0411C7.44639 22.7449 8.03821 23.4007 8.71001 24.0085C9.38181 24.6163 10.1123 25.1122 10.9013 25.496ZM15.8918 26.6797C17.726 26.6797 19.4214 26.2691 20.9783 25.4481C22.5352 24.627 23.8254 23.4913 24.8491 22.0411L22.7698 20.8255L13.2686 26.3598C13.6952 26.4664 14.1324 26.5464 14.5802 26.5997C15.0281 26.653 15.4653 26.6797 15.8918 26.6797ZM25.7769 20.3456C26.1607 19.5352 26.4273 18.7141 26.5766 17.8823C26.7259 17.0506 26.7899 16.1655 26.7686 15.2271L16.8516 9.43689V15.0992L25.7769 20.3456ZM15.8918 28.5991C14.1217 28.5991 12.4582 28.2632 10.9013 27.5914C9.34448 26.9196 7.99023 26.0079 6.83857 24.8562C5.68692 23.7046 4.7752 22.3503 4.1034 20.7935C3.4316 19.2366 3.0957 17.5731 3.0957 15.803C3.0957 14.0328 3.4316 12.3693 4.1034 10.8125C4.7752 9.25562 5.68692 7.90136 6.83857 6.74971C7.99023 5.59805 9.34448 4.68633 10.9013 4.01453C12.4582 3.34273 14.1217 3.00684 15.8918 3.00684C17.662 3.00684 19.3255 3.34273 20.8823 4.01453C22.4392 4.68633 23.7935 5.59805 24.9451 6.74971C26.0968 7.90136 27.0085 9.25562 27.6803 10.8125C28.3521 12.3693 28.688 14.0328 28.688 15.803C28.688 17.5731 28.3521 19.2366 27.6803 20.7935C27.0085 22.3503 26.0968 23.7046 24.9451 24.8562C23.7935 26.0079 22.4392 26.9196 20.8823 27.5914C19.3255 28.2632 17.662 28.5991 15.8918 28.5991Z" fill="white"/>
</g>
</svg>
