<svg width="32" height="32" viewBox="0 0 32 32" fill="none" xmlns="http://www.w3.org/2000/svg">
<mask id="mask0_2032_4340" style="mask-type:alpha" maskUnits="userSpaceOnUse" x="0" y="0" width="32" height="32">
<rect x="0.714844" y="0.65918" width="30.7107" height="30.7107" fill="#D9D9D9"/>
</mask>
<g mask="url(#mask0_2032_4340)">
<path d="M14.4378 30.0903L13.8299 17.742L8.61551 14.7349L8.00769 16.9103L10.5029 21.261L8.87143 22.2207L5.92832 17.1982L7.39988 11.9518L14.9816 7.56909L11.3987 3.98617L12.7423 2.64258L18.1166 7.98497L13.478 10.6402L16.1972 12.8475L26.3702 3.79423L27.5858 5.00986L17.029 16.5264L16.3892 30.0903H14.4378ZM6.88803 9.71244C6.24822 9.71244 5.69906 9.48318 5.24053 9.02465C4.782 8.56612 4.55273 8.01696 4.55273 7.37715C4.55273 6.73734 4.782 6.18817 5.24053 5.72965C5.69906 5.27112 6.24822 5.04185 6.88803 5.04185C7.52784 5.04185 8.077 5.27112 8.53553 5.72965C8.99406 6.18817 9.22333 6.73734 9.22333 7.37715C9.22333 8.01696 8.99406 8.56612 8.53553 9.02465C8.077 9.48318 7.52784 9.71244 6.88803 9.71244Z" fill="white"/>
</g>
</svg>
