<svg width="27" height="26" viewBox="0 0 27 26" fill="none" xmlns="http://www.w3.org/2000/svg">
<path d="M2.86938 11.8433H7.25206C7.10277 10.8196 6.80419 9.85453 6.35633 8.94814C5.90846 8.04174 5.35396 7.25798 4.69283 6.59685C4.20231 7.34329 3.78644 8.15371 3.44521 9.02811C3.10398 9.90252 2.91203 10.8409 2.86938 11.8433ZM20.1762 11.8433H24.5588C24.5162 10.8409 24.3242 9.90252 23.983 9.02811C23.6418 8.15371 23.2259 7.34329 22.7354 6.59685C22.0103 7.32196 21.4398 8.12172 21.0239 8.99612C20.608 9.87053 20.3254 10.8196 20.1762 11.8433ZM4.69283 18.9771C5.41794 18.252 5.98844 17.4576 6.40431 16.5938C6.82019 15.7301 7.10277 14.7864 7.25206 13.7627H2.86938C2.91203 14.765 3.10398 15.6981 3.44521 16.5618C3.78644 17.4256 4.20231 18.2307 4.69283 18.9771ZM22.7354 18.9771C23.2259 18.2307 23.6418 17.4256 23.983 16.5618C24.3242 15.6981 24.5162 14.765 24.5588 13.7627H20.1762C20.3254 14.7864 20.608 15.7301 21.0239 16.5938C21.4398 17.4576 22.0103 18.252 22.7354 18.9771ZM9.20347 11.8433H12.7544V1.95825C11.4321 2.10754 10.2005 2.44877 9.05951 2.98194C7.91852 3.51511 6.8895 4.22956 5.97244 5.12529C6.84685 5.99969 7.5613 7.01272 8.1158 8.16437C8.6703 9.31603 9.03285 10.5423 9.20347 11.8433ZM14.6738 11.8433H18.2247C18.3954 10.5423 18.7632 9.31603 19.3284 8.16437C19.8936 7.01272 20.6134 5.99969 21.4878 5.12529C20.5707 4.22956 19.5364 3.51511 18.3847 2.98194C17.233 2.44877 15.9961 2.10754 14.6738 1.95825V11.8433ZM12.7544 23.6477V13.7627H9.20347C9.03285 15.0636 8.6703 16.2846 8.1158 17.4256C7.5613 18.5666 6.84685 19.5743 5.97244 20.4487C6.8895 21.3444 7.89186 22.0642 8.97954 22.608C10.0672 23.1518 11.3255 23.4984 12.7544 23.6477ZM14.6738 23.6477C16.1027 23.4984 17.3663 23.1518 18.4647 22.608C19.563 22.0642 20.5707 21.3444 21.4878 20.4487C20.6134 19.5743 19.8936 18.5666 19.3284 17.4256C18.7632 16.2846 18.3954 15.0636 18.2247 13.7627H14.6738V23.6477ZM13.7141 25.5991C11.944 25.5991 10.2805 25.2632 8.72361 24.5914C7.16675 23.9196 5.81249 23.0079 4.66084 21.8562C3.50919 20.7046 2.59746 19.3503 1.92566 17.7935C1.25387 16.2366 0.917969 14.5731 0.917969 12.803C0.917969 11.0328 1.25387 9.36934 1.92566 7.81248C2.59746 6.25562 3.50919 4.90136 4.66084 3.74971C5.81249 2.59805 7.16675 1.68633 8.72361 1.01453C10.2805 0.342735 11.944 0.00683594 13.7141 0.00683594C15.4842 0.00683594 17.1477 0.342735 18.7046 1.01453C20.2615 1.68633 21.6157 2.59805 22.7674 3.74971C23.919 4.90136 24.8307 6.25562 25.5025 7.81248C26.1743 9.36934 26.5102 11.0328 26.5102 12.803C26.5102 14.5731 26.1743 16.2366 25.5025 17.7935C24.8307 19.3503 23.919 20.7046 22.7674 21.8562C21.6157 23.0079 20.2615 23.9196 18.7046 24.5914C17.1477 25.2632 15.4842 25.5991 13.7141 25.5991Z" fill="white"/>
</svg>
