<svg width="32" height="32" viewBox="0 0 32 32" fill="none" xmlns="http://www.w3.org/2000/svg">
<mask id="mask0_2032_4308" style="mask-type:alpha" maskUnits="userSpaceOnUse" x="0" y="0" width="32" height="32">
<rect x="0.359375" y="0.447266" width="30.7107" height="30.7107" fill="#D9D9D9"/>
</mask>
<g mask="url(#mask0_2032_4308)">
<path d="M4.86938 14.8433H9.25206C9.10277 13.8196 8.80419 12.8545 8.35633 11.9481C7.90846 11.0417 7.35396 10.258 6.69283 9.59685C6.20231 10.3433 5.78644 11.1537 5.44521 12.0281C5.10398 12.9025 4.91203 13.8409 4.86938 14.8433ZM22.1762 14.8433H26.5588C26.5162 13.8409 26.3242 12.9025 25.983 12.0281C25.6418 11.1537 25.2259 10.3433 24.7354 9.59685C24.0103 10.322 23.4398 11.1217 23.0239 11.9961C22.608 12.8705 22.3254 13.8196 22.1762 14.8433ZM6.69283 21.9771C7.41794 21.252 7.98844 20.4576 8.40431 19.5938C8.82019 18.7301 9.10277 17.7864 9.25206 16.7627H4.86938C4.91203 17.765 5.10398 18.6981 5.44521 19.5618C5.78644 20.4256 6.20231 21.2307 6.69283 21.9771ZM24.7354 21.9771C25.2259 21.2307 25.6418 20.4256 25.983 19.5618C26.3242 18.6981 26.5162 17.765 26.5588 16.7627H22.1762C22.3254 17.7864 22.608 18.7301 23.0239 19.5938C23.4398 20.4576 24.0103 21.252 24.7354 21.9771ZM11.2035 14.8433H14.7544V4.95825C13.4321 5.10754 12.2005 5.44877 11.0595 5.98194C9.91852 6.51511 8.8895 7.22956 7.97244 8.12529C8.84685 8.99969 9.5613 10.0127 10.1158 11.1644C10.6703 12.316 11.0329 13.5423 11.2035 14.8433ZM16.6738 14.8433H20.2247C20.3954 13.5423 20.7632 12.316 21.3284 11.1644C21.8936 10.0127 22.6134 8.99969 23.4878 8.12529C22.5707 7.22956 21.5364 6.51511 20.3847 5.98194C19.233 5.44877 17.9961 5.10754 16.6738 4.95825V14.8433ZM14.7544 26.6477V16.7627H11.2035C11.0329 18.0636 10.6703 19.2846 10.1158 20.4256C9.5613 21.5666 8.84685 22.5743 7.97244 23.4487C8.8895 24.3444 9.89186 25.0642 10.9795 25.608C12.0672 26.1518 13.3255 26.4984 14.7544 26.6477ZM16.6738 26.6477C18.1027 26.4984 19.3663 26.1518 20.4647 25.608C21.563 25.0642 22.5707 24.3444 23.4878 23.4487C22.6134 22.5743 21.8936 21.5666 21.3284 20.4256C20.7632 19.2846 20.3954 18.0636 20.2247 16.7627H16.6738V26.6477ZM15.7141 28.5991C13.944 28.5991 12.2805 28.2632 10.7236 27.5914C9.16675 26.9196 7.81249 26.0079 6.66084 24.8562C5.50919 23.7046 4.59746 22.3503 3.92566 20.7935C3.25387 19.2366 2.91797 17.5731 2.91797 15.803C2.91797 14.0328 3.25387 12.3693 3.92566 10.8125C4.59746 9.25562 5.50919 7.90136 6.66084 6.74971C7.81249 5.59805 9.16675 4.68633 10.7236 4.01453C12.2805 3.34273 13.944 3.00684 15.7141 3.00684C17.4842 3.00684 19.1477 3.34273 20.7046 4.01453C22.2615 4.68633 23.6157 5.59805 24.7674 6.74971C25.919 7.90136 26.8307 9.25562 27.5025 10.8125C28.1743 12.3693 28.5102 14.0328 28.5102 15.803C28.5102 17.5731 28.1743 19.2366 27.5025 20.7935C26.8307 22.3503 25.919 23.7046 24.7674 24.8562C23.6157 26.0079 22.2615 26.9196 20.7046 27.5914C19.1477 28.2632 17.4842 28.5991 15.7141 28.5991Z" fill="white"/>
</g>
</svg>
