<svg width="31" height="32" viewBox="0 0 31 32" fill="none" xmlns="http://www.w3.org/2000/svg">
<mask id="mask0_2032_4453" style="mask-type:alpha" maskUnits="userSpaceOnUse" x="0" y="0" width="31" height="32">
<rect x="0.125" y="0.65918" width="30.7107" height="30.7107" fill="#D9D9D9"/>
</mask>
<g mask="url(#mask0_2032_4453)">
<path d="M27.3807 24.1404L23.9898 20.7495L25.3334 19.4059L28.7243 22.7968L27.3807 24.1404ZM22.7741 8.78507L21.4305 7.44148L24.8215 4.0505L26.1651 5.39409L22.7741 8.78507ZM8.18653 8.78507L4.79556 5.39409L6.13915 4.0505L9.53013 7.44148L8.18653 8.78507ZM3.57992 24.1404L2.23633 22.7968L5.62731 19.4059L6.9709 20.7495L3.57992 24.1404ZM10.4578 23.5326L15.4803 20.5255L20.5028 23.5646L19.1592 17.8703L23.5739 14.0315L17.7516 13.5196L15.4803 8.14526L13.209 13.4877L7.38677 13.9995L11.8014 17.8383L10.4578 23.5326ZM7.57872 27.5314L9.65809 18.5421L2.68419 12.496L11.8974 11.6962L15.4803 3.21875L19.0633 11.6962L28.2765 12.496L21.3026 18.5421L23.3819 27.5314L15.4803 22.7649L7.57872 27.5314Z" fill="white"/>
</g>
</svg>
