<svg width="68" height="62" viewBox="0 0 68 62" fill="none" xmlns="http://www.w3.org/2000/svg">
<path d="M0.5 61.1919V55.8319C2.51 55.6644 4.11521 55.0781 5.31562 54.0731C6.51604 53.0681 8.40042 52.5656 10.9688 52.5656C13.5371 52.5656 15.6308 53.1658 17.25 54.3662C18.8692 55.5666 20.7396 56.1669 22.8612 56.1669C24.9829 56.1669 26.7277 55.5666 28.0956 54.3662C29.4635 53.1658 31.4317 52.5656 34 52.5656C36.5683 52.5656 38.6621 53.1658 40.2812 54.3662C41.9004 55.5666 43.7708 56.1669 45.8925 56.1669C48.0142 56.1669 49.7729 55.5666 51.1687 54.3662C52.5646 53.1658 54.5467 52.5656 57.115 52.5656C59.6833 52.5656 61.5537 53.0681 62.7262 54.0731C63.8988 55.0781 65.49 55.6644 67.5 55.8319V61.1919C65.5458 61.0244 63.8569 60.3962 62.4331 59.3075C61.0094 58.2187 59.2367 57.6744 57.115 57.6744C54.9933 57.6744 53.1787 58.2606 51.6712 59.4331C50.1637 60.6056 48.2375 61.1919 45.8925 61.1919C43.5475 61.1919 41.5096 60.6056 39.7788 59.4331C38.0479 58.2606 36.1217 57.6744 34 57.6744C31.8783 57.6744 30.0219 58.2606 28.4306 59.4331C26.8394 60.6056 24.8713 61.1919 22.5263 61.1919C20.1812 61.1919 18.1992 60.6056 16.58 59.4331C14.9608 58.2606 13.0904 57.6744 10.9688 57.6744C8.84708 57.6744 7.06042 58.2187 5.60875 59.3075C4.15708 60.3962 2.45417 61.0244 0.5 61.1919ZM0.5 45.4469V40.4219C2.51 40.2544 4.11521 39.6821 5.31562 38.705C6.51604 37.7279 8.40042 37.2394 10.9688 37.2394C13.5371 37.2394 15.575 37.7698 17.0825 38.8306C18.59 39.8914 20.4046 40.4219 22.5263 40.4219C24.6479 40.4219 26.4485 39.8914 27.9281 38.8306C29.4077 37.7698 31.4317 37.2394 34 37.2394C36.5683 37.2394 38.6062 37.7698 40.1137 38.8306C41.6213 39.8914 43.4358 40.4219 45.5575 40.4219C47.6792 40.4219 49.4937 39.8914 51.0012 38.8306C52.5087 37.7698 54.5467 37.2394 57.115 37.2394C59.6833 37.2394 61.5537 37.7279 62.7262 38.705C63.8988 39.6821 65.49 40.2544 67.5 40.4219V45.4469C65.5458 45.2794 63.8569 44.6512 62.4331 43.5625C61.0094 42.4737 59.2367 41.9294 57.115 41.9294C54.9933 41.9294 53.1787 42.5156 51.6712 43.6881C50.1637 44.8606 48.2375 45.4469 45.8925 45.4469C43.5475 45.4469 41.5096 44.8606 39.7788 43.6881C38.0479 42.5156 36.1217 41.9294 34 41.9294C31.8783 41.9294 30.0777 42.5156 28.5981 43.6881C27.1185 44.8606 25.2062 45.4469 22.8612 45.4469C20.5163 45.4469 18.4783 44.8606 16.7475 43.6881C15.0167 42.5156 13.0904 41.9294 10.9688 41.9294C8.84708 41.9294 7.06042 42.4737 5.60875 43.5625C4.15708 44.6512 2.45417 45.2794 0.5 45.4469ZM17.92 28.0269L29.2262 16.7206L24.7037 12.1981C22.8054 10.2998 20.8792 9.02956 18.925 8.38748C16.9708 7.7454 14.4862 7.42436 11.4712 7.42436V0.808105C15.4913 0.808105 18.7994 1.31061 21.3956 2.31561C23.9919 3.32061 26.5183 5.05144 28.975 7.50811L50.1637 28.6969C49.5496 29.1994 48.8377 29.5623 48.0281 29.7856C47.2185 30.0089 46.395 30.1206 45.5575 30.1206C43.4358 30.1206 41.6073 29.5344 40.0719 28.3619C38.5365 27.1894 36.5125 26.6031 34 26.6031C31.4875 26.6031 29.4775 27.1894 27.97 28.3619C26.4625 29.5344 24.6479 30.1206 22.5263 30.1206C21.5212 30.1206 20.614 29.9252 19.8044 29.5344C18.9948 29.1435 18.3667 28.641 17.92 28.0269ZM49.745 1.14311C51.9783 1.14311 53.8627 1.91081 55.3981 3.44623C56.9335 4.98165 57.7013 6.86602 57.7013 9.09936C57.7013 11.3327 56.9335 13.2171 55.3981 14.7525C53.8627 16.2879 51.9783 17.0556 49.745 17.0556C47.5117 17.0556 45.6273 16.2879 44.0919 14.7525C42.5565 13.2171 41.7887 11.3327 41.7887 9.09936C41.7887 6.86602 42.5565 4.98165 44.0919 3.44623C45.6273 1.91081 47.5117 1.14311 49.745 1.14311Z" fill="#F8F9FA"/>
</svg>
