<svg width="62" height="68" viewBox="0 0 62 68" fill="none" xmlns="http://www.w3.org/2000/svg">
<path d="M3.72014 58.4067L0.434326 55.1209L13.7304 41.8248C15.4115 40.1437 16.6087 38.0423 17.3219 35.5206C18.0351 32.999 18.3917 29.4712 18.3917 24.9373C18.3917 22.0335 19.0285 19.1807 20.302 16.3789C21.5756 13.577 23.5114 10.8771 26.1095 8.27897C30.5925 3.796 35.5085 1.24886 40.8575 0.637546C46.2065 0.0262317 50.613 1.45263 54.0771 4.91674C57.5412 8.38085 58.9676 12.8129 58.3563 18.2128C57.745 23.6128 55.1979 28.5542 50.7149 33.0372C48.1168 35.6353 45.4168 37.5456 42.615 38.7682C39.8131 39.9909 36.9603 40.6022 34.0566 40.6022C29.5227 40.6022 25.9694 40.9333 23.3968 41.5956C20.8242 42.2578 18.6973 43.4295 17.0162 45.1106L3.72014 58.4067ZM25.8803 33.0372C28.3765 35.5334 31.7642 36.4631 36.0434 35.8263C40.3226 35.1895 44.1687 33.1645 47.5819 29.7514C50.9951 26.3382 53.0328 22.5302 53.695 18.3274C54.3573 14.1247 53.4403 10.7752 50.9441 8.27897C48.4479 5.78277 45.073 4.85306 40.8193 5.48985C36.5655 6.12664 32.7321 8.15161 29.3189 11.5648C25.9057 14.978 23.8553 18.7859 23.1676 22.9887C22.4798 27.1915 23.3841 30.541 25.8803 33.0372ZM50.5621 67.5C47.5055 67.5 44.9074 66.4302 42.7678 64.2906C40.6282 62.151 39.5584 59.5529 39.5584 56.4963C39.5584 53.4398 40.6282 50.8417 42.7678 48.7021C44.9074 46.5625 47.5055 45.4927 50.5621 45.4927C53.6186 45.4927 56.2167 46.5625 58.3563 48.7021C60.4959 50.8417 61.5657 53.4398 61.5657 56.4963C61.5657 59.5529 60.4959 62.151 58.3563 64.2906C56.2167 66.4302 53.6186 67.5 50.5621 67.5Z" fill="#F8F9FA"/>
</svg>
