<svg width="38" height="68" viewBox="0 0 38 68" fill="none" xmlns="http://www.w3.org/2000/svg">
<path d="M9.61713 67.5L5.95192 65.3009L15.3349 49.3206L9.32391 45.7287L3.8261 54.5985L0.160889 52.3993L16.9475 25.2035C14.895 23.3953 13.3556 21.4283 12.3294 19.3025C11.3031 17.1767 10.79 14.9409 10.79 12.5952C10.79 10.7381 10.9733 9.02772 11.3398 7.46389C11.7063 5.90007 12.3538 4.18964 13.2823 2.3326L17.0941 4.38512C16.41 5.80233 15.9213 7.13403 15.6281 8.3802C15.3348 9.62637 15.1882 10.8848 15.1882 12.1554C15.1882 14.5011 15.7502 16.6269 16.8742 18.5328C17.9982 20.4387 19.8797 22.1736 22.5187 23.7374L29.6292 27.9158C32.4147 29.5284 34.4795 31.5199 35.8234 33.89C37.1673 36.2602 37.8392 38.9847 37.8392 42.0635C37.8392 43.9694 37.546 45.8997 36.9596 47.8545C36.3731 49.8093 35.5912 51.6663 34.6138 53.4256L30.802 51.2265C31.6328 49.6627 32.2803 48.1355 32.7446 46.645C33.2088 45.1544 33.441 43.6273 33.441 42.0635C33.441 40.2064 33.1233 38.5082 32.488 36.9688C31.8527 35.4294 30.8998 34.2444 29.6292 33.4136L9.61713 67.5ZM30.5088 22.9311C29.0427 22.9311 27.7843 22.4057 26.7336 21.355C25.683 20.3043 25.1576 19.046 25.1576 17.5799C25.1576 16.1138 25.683 14.8554 26.7336 13.8047C27.7843 12.754 29.0427 12.2287 30.5088 12.2287C31.9749 12.2287 33.2333 12.754 34.284 13.8047C35.3347 14.8554 35.86 16.1138 35.86 17.5799C35.86 19.046 35.3347 20.3043 34.284 21.355C33.2333 22.4057 31.9749 22.9311 30.5088 22.9311ZM23.6182 9.2965C22.3476 9.2965 21.2969 8.88111 20.4661 8.05033C19.6354 7.21955 19.22 6.16886 19.22 4.89825C19.22 3.62764 19.6354 2.57695 20.4661 1.74617C21.2969 0.91539 22.3476 0.5 23.6182 0.5C24.8888 0.5 25.9395 0.91539 26.7703 1.74617C27.6011 2.57695 28.0165 3.62764 28.0165 4.89825C28.0165 6.16886 27.6011 7.21955 26.7703 8.05033C25.9395 8.88111 24.8888 9.2965 23.6182 9.2965Z" fill="#F8F9FA"/>
</svg>
